<svg width="348" height="160" viewBox="0 0 348 160" fill="none" xmlns="http://www.w3.org/2000/svg">
<rect x="1" y="0.5" width="346.5" height="159" rx="9.5" fill="#1A1A1A"/>
<rect x="1" y="0.5" width="346.5" height="159" rx="9.5" stroke="#262626"/>
<rect x="144.75" y="30.5" width="59" height="59" rx="29.5" stroke="url(#paint0_linear_139_6457)"/>
<rect x="144.75" y="30.5" width="59" height="59" rx="29.5" stroke="url(#paint1_linear_139_6457)"/>
<rect x="152.75" y="38.5" width="43" height="43" rx="21.5" stroke="url(#paint2_linear_139_6457)"/>
<rect x="152.75" y="38.5" width="43" height="43" rx="21.5" stroke="url(#paint3_linear_139_6457)"/>
<path d="M174.25 55.5C173.007 55.5 172 56.5074 172 57.75C172 58.9926 173.007 60 174.25 60C175.493 60 176.5 58.9926 176.5 57.75C176.5 56.5074 175.493 55.5 174.25 55.5Z" fill="#A685FA"/>
<path fill-rule="evenodd" clip-rule="evenodd" d="M163.75 52.875C163.75 51.8395 164.589 51 165.625 51H182.875C183.911 51 184.75 51.8395 184.75 52.875V62.625C184.75 63.6605 183.911 64.5 182.875 64.5H165.625C164.589 64.5 163.75 63.6605 163.75 62.625V52.875ZM170.5 57.75C170.5 55.6789 172.179 54 174.25 54C176.321 54 178 55.6789 178 57.75C178 59.8211 176.321 61.5 174.25 61.5C172.179 61.5 170.5 59.8211 170.5 57.75ZM181 57C180.586 57 180.25 57.3358 180.25 57.75V57.7575C180.25 58.1717 180.586 58.5075 181 58.5075H181.007C181.422 58.5075 181.757 58.1717 181.757 57.7575V57.75C181.757 57.3358 181.422 57 181.007 57H181ZM166.75 57.75C166.75 57.3358 167.086 57 167.5 57H167.508C167.922 57 168.258 57.3358 168.258 57.75V57.7575C168.258 58.1717 167.922 58.5075 167.508 58.5075H167.5C167.086 58.5075 166.75 58.1717 166.75 57.7575V57.75Z" fill="#A685FA"/>
<path d="M164.5 66C164.086 66 163.75 66.3358 163.75 66.75C163.75 67.1642 164.086 67.5 164.5 67.5C169.9 67.5 175.13 68.2222 180.1 69.5749C181.29 69.899 182.5 69.0168 182.5 67.7551V66.75C182.5 66.3358 182.164 66 181.75 66H164.5Z" fill="#A685FA"/>
<path d="M100.79 124.208C99.8944 124.208 99.1131 123.989 98.4464 123.552C97.7851 123.115 97.2704 122.528 96.9024 121.792C96.5398 121.051 96.3584 120.229 96.3584 119.328V112.8H98.0224V119.328C98.0224 119.915 98.1291 120.453 98.3424 120.944C98.5611 121.429 98.8758 121.819 99.2864 122.112C99.7024 122.4 100.204 122.544 100.79 122.544C101.393 122.544 101.9 122.4 102.31 122.112C102.721 121.819 103.03 121.429 103.238 120.944C103.452 120.453 103.558 119.915 103.558 119.328V112.8H105.222V119.328C105.222 120.005 105.118 120.64 104.91 121.232C104.702 121.819 104.404 122.336 104.014 122.784C103.625 123.232 103.158 123.581 102.614 123.832C102.07 124.083 101.462 124.208 100.79 124.208ZM114.152 118.984V124H112.488V119.392C112.488 119.035 112.4 118.709 112.224 118.416C112.054 118.123 111.822 117.891 111.528 117.72C111.24 117.544 110.915 117.456 110.552 117.456C110.2 117.456 109.878 117.544 109.584 117.72C109.291 117.891 109.056 118.123 108.88 118.416C108.704 118.709 108.616 119.035 108.616 119.392V124H106.952V116H108.616V116.848C108.894 116.517 109.235 116.256 109.64 116.064C110.046 115.872 110.483 115.776 110.952 115.776C111.544 115.776 112.083 115.92 112.568 116.208C113.054 116.496 113.438 116.883 113.72 117.368C114.008 117.853 114.152 118.392 114.152 118.984ZM115.812 124V112H117.476V124H115.812ZM122.8 124.208C122.064 124.208 121.392 124.019 120.784 123.64C120.182 123.261 119.699 122.755 119.336 122.12C118.979 121.48 118.8 120.773 118.8 120C118.8 119.413 118.904 118.867 119.112 118.36C119.32 117.848 119.606 117.4 119.968 117.016C120.336 116.627 120.763 116.323 121.248 116.104C121.734 115.885 122.251 115.776 122.8 115.776C123.536 115.776 124.206 115.965 124.808 116.344C125.416 116.723 125.899 117.232 126.256 117.872C126.619 118.512 126.8 119.221 126.8 120C126.8 120.581 126.696 121.125 126.488 121.632C126.28 122.139 125.992 122.587 125.624 122.976C125.262 123.36 124.838 123.661 124.352 123.88C123.872 124.099 123.355 124.208 122.8 124.208ZM122.8 122.544C123.243 122.544 123.64 122.427 123.992 122.192C124.344 121.957 124.622 121.648 124.824 121.264C125.032 120.875 125.136 120.453 125.136 120C125.136 119.536 125.03 119.109 124.816 118.72C124.608 118.331 124.328 118.021 123.976 117.792C123.624 117.557 123.232 117.44 122.8 117.44C122.363 117.44 121.966 117.557 121.608 117.792C121.256 118.027 120.976 118.339 120.768 118.728C120.566 119.117 120.464 119.541 120.464 120C120.464 120.475 120.571 120.904 120.784 121.288C120.998 121.672 121.28 121.979 121.632 122.208C121.99 122.432 122.379 122.544 122.8 122.544ZM133.301 121.728L134.789 122.536C134.427 123.043 133.965 123.448 133.405 123.752C132.851 124.056 132.248 124.208 131.597 124.208C130.861 124.208 130.189 124.019 129.581 123.64C128.979 123.261 128.496 122.755 128.133 122.12C127.776 121.48 127.597 120.773 127.597 120C127.597 119.413 127.701 118.867 127.909 118.36C128.117 117.848 128.403 117.4 128.765 117.016C129.133 116.627 129.56 116.323 130.045 116.104C130.531 115.885 131.048 115.776 131.597 115.776C132.248 115.776 132.851 115.928 133.405 116.232C133.965 116.536 134.427 116.944 134.789 117.456L133.301 118.264C133.077 117.997 132.816 117.795 132.517 117.656C132.219 117.512 131.912 117.44 131.597 117.44C131.16 117.44 130.763 117.56 130.405 117.8C130.053 118.035 129.773 118.347 129.565 118.736C129.363 119.12 129.261 119.541 129.261 120C129.261 120.453 129.365 120.875 129.573 121.264C129.781 121.648 130.061 121.957 130.413 122.192C130.771 122.427 131.165 122.544 131.597 122.544C131.928 122.544 132.243 122.469 132.541 122.32C132.84 122.171 133.093 121.973 133.301 121.728ZM142.886 124H140.966L138.998 120.608L137.71 122.144V124H136.046V112H137.71V119.56L140.686 116H142.862L140.134 119.256L142.886 124ZM148.202 124V112.8H152.058C152.661 112.8 153.205 112.949 153.69 113.248C154.181 113.547 154.57 113.949 154.858 114.456C155.152 114.963 155.298 115.523 155.298 116.136C155.298 116.76 155.149 117.325 154.85 117.832C154.557 118.333 154.165 118.733 153.674 119.032C153.184 119.331 152.645 119.48 152.058 119.48H149.866V124H148.202ZM149.866 117.816H151.89C152.21 117.816 152.501 117.736 152.762 117.576C153.029 117.416 153.24 117.203 153.394 116.936C153.554 116.669 153.634 116.368 153.634 116.032C153.634 115.696 153.554 115.395 153.394 115.128C153.24 114.856 153.029 114.643 152.762 114.488C152.501 114.328 152.21 114.248 151.89 114.248H149.866V117.816ZM156.608 124V116H158.272V116.848C158.55 116.517 158.891 116.256 159.296 116.064C159.702 115.872 160.139 115.776 160.608 115.776C160.907 115.776 161.203 115.816 161.496 115.896L160.832 117.576C160.624 117.496 160.416 117.456 160.208 117.456C159.856 117.456 159.534 117.544 159.24 117.72C158.947 117.891 158.712 118.123 158.536 118.416C158.36 118.709 158.272 119.035 158.272 119.392V124H156.608ZM165.566 124.208C164.83 124.208 164.158 124.019 163.55 123.64C162.947 123.261 162.465 122.755 162.102 122.12C161.745 121.48 161.566 120.773 161.566 120C161.566 119.413 161.67 118.867 161.878 118.36C162.086 117.848 162.371 117.4 162.734 117.016C163.102 116.627 163.529 116.323 164.014 116.104C164.499 115.885 165.017 115.776 165.566 115.776C166.302 115.776 166.971 115.965 167.574 116.344C168.182 116.723 168.665 117.232 169.022 117.872C169.385 118.512 169.566 119.221 169.566 120C169.566 120.581 169.462 121.125 169.254 121.632C169.046 122.139 168.758 122.587 168.39 122.976C168.027 123.36 167.603 123.661 167.118 123.88C166.638 124.099 166.121 124.208 165.566 124.208ZM165.566 122.544C166.009 122.544 166.406 122.427 166.758 122.192C167.11 121.957 167.387 121.648 167.59 121.264C167.798 120.875 167.902 120.453 167.902 120C167.902 119.536 167.795 119.109 167.582 118.72C167.374 118.331 167.094 118.021 166.742 117.792C166.39 117.557 165.998 117.44 165.566 117.44C165.129 117.44 164.731 117.557 164.374 117.792C164.022 118.027 163.742 118.339 163.534 118.728C163.331 119.117 163.23 119.541 163.23 120C163.23 120.475 163.337 120.904 163.55 121.288C163.763 121.672 164.046 121.979 164.398 122.208C164.755 122.432 165.145 122.544 165.566 122.544ZM172.522 128H170.858V116H172.522V117.176C172.789 116.765 173.13 116.432 173.546 116.176C173.962 115.92 174.453 115.792 175.018 115.792C175.6 115.792 176.144 115.901 176.65 116.12C177.162 116.339 177.61 116.643 177.994 117.032C178.378 117.416 178.68 117.861 178.898 118.368C179.117 118.875 179.226 119.419 179.226 120C179.226 120.581 179.117 121.128 178.898 121.64C178.68 122.152 178.378 122.603 177.994 122.992C177.61 123.376 177.162 123.677 176.65 123.896C176.144 124.115 175.6 124.224 175.018 124.224C174.453 124.224 173.962 124.096 173.546 123.84C173.13 123.579 172.789 123.245 172.522 122.84V128ZM175.002 117.4C174.538 117.4 174.13 117.517 173.778 117.752C173.426 117.987 173.152 118.301 172.954 118.696C172.757 119.085 172.658 119.52 172.658 120C172.658 120.48 172.757 120.917 172.954 121.312C173.152 121.707 173.426 122.021 173.778 122.256C174.13 122.491 174.538 122.608 175.002 122.608C175.461 122.608 175.882 122.493 176.266 122.264C176.65 122.029 176.957 121.715 177.186 121.32C177.416 120.925 177.53 120.485 177.53 120C177.53 119.525 177.416 119.091 177.186 118.696C176.962 118.301 176.658 117.987 176.274 117.752C175.89 117.517 175.466 117.4 175.002 117.4ZM184.035 124.208C183.299 124.208 182.627 124.019 182.019 123.64C181.416 123.261 180.933 122.755 180.571 122.12C180.213 121.48 180.035 120.773 180.035 120C180.035 119.413 180.139 118.867 180.347 118.36C180.555 117.848 180.84 117.4 181.203 117.016C181.571 116.627 181.997 116.323 182.483 116.104C182.968 115.885 183.485 115.776 184.035 115.776C184.648 115.776 185.211 115.904 185.723 116.16C186.235 116.411 186.672 116.76 187.035 117.208C187.397 117.651 187.664 118.163 187.835 118.744C188.005 119.32 188.056 119.933 187.987 120.584H181.819C181.888 120.952 182.021 121.285 182.219 121.584C182.421 121.877 182.677 122.109 182.987 122.28C183.301 122.451 183.651 122.539 184.035 122.544C184.44 122.544 184.808 122.443 185.139 122.24C185.475 122.037 185.749 121.757 185.963 121.4L187.651 121.792C187.331 122.501 186.848 123.083 186.203 123.536C185.557 123.984 184.835 124.208 184.035 124.208ZM181.763 119.312H186.307C186.253 118.928 186.117 118.581 185.899 118.272C185.685 117.957 185.416 117.709 185.091 117.528C184.771 117.341 184.419 117.248 184.035 117.248C183.656 117.248 183.304 117.339 182.979 117.52C182.659 117.701 182.392 117.949 182.179 118.264C181.971 118.573 181.832 118.923 181.763 119.312ZM189.312 124V116H190.976V116.848C191.253 116.517 191.594 116.256 192 116.064C192.405 115.872 192.842 115.776 193.312 115.776C193.61 115.776 193.906 115.816 194.2 115.896L193.536 117.576C193.328 117.496 193.12 117.456 192.912 117.456C192.56 117.456 192.237 117.544 191.944 117.72C191.65 117.891 191.416 118.123 191.24 118.416C191.064 118.709 190.976 119.035 190.976 119.392V124H189.312ZM199.551 117.664H197.871L197.863 124H196.199L196.207 117.664H194.935V116H196.207L196.199 113.488H197.863L197.871 116H199.551V117.664ZM206.213 116H207.989L203.605 128H201.837L203.285 124L200.413 116H202.229L204.117 121.72L206.213 116ZM217.101 124L213.037 112.8H214.797L218.141 122.024L221.501 112.8H223.261L219.197 124H217.101ZM229.848 116H231.512V124H229.84L229.776 122.84C229.541 123.251 229.224 123.581 228.824 123.832C228.424 124.083 227.952 124.208 227.408 124.208C226.821 124.208 226.269 124.099 225.752 123.88C225.235 123.656 224.779 123.347 224.384 122.952C223.995 122.557 223.691 122.104 223.472 121.592C223.253 121.075 223.144 120.52 223.144 119.928C223.144 119.357 223.251 118.821 223.464 118.32C223.677 117.813 223.973 117.371 224.352 116.992C224.731 116.613 225.168 116.317 225.664 116.104C226.165 115.885 226.701 115.776 227.272 115.776C227.853 115.776 228.365 115.909 228.808 116.176C229.256 116.437 229.627 116.773 229.92 117.184L229.848 116ZM227.368 122.6C227.837 122.6 228.248 122.485 228.6 122.256C228.952 122.021 229.224 121.707 229.416 121.312C229.613 120.917 229.712 120.48 229.712 120C229.712 119.515 229.613 119.075 229.416 118.68C229.219 118.285 228.944 117.973 228.592 117.744C228.245 117.509 227.837 117.392 227.368 117.392C226.904 117.392 226.48 117.509 226.096 117.744C225.712 117.979 225.408 118.293 225.184 118.688C224.96 119.083 224.848 119.52 224.848 120C224.848 120.485 224.963 120.925 225.192 121.32C225.427 121.709 225.733 122.021 226.112 122.256C226.496 122.485 226.915 122.6 227.368 122.6ZM233.171 124V112H234.835V124H233.171ZM236.429 121V116H238.093V120.592C238.093 120.949 238.181 121.275 238.357 121.568C238.533 121.861 238.768 122.096 239.061 122.272C239.354 122.443 239.677 122.528 240.029 122.528C240.386 122.528 240.709 122.443 240.997 122.272C241.29 122.096 241.522 121.861 241.693 121.568C241.869 121.275 241.957 120.949 241.957 120.592V116H243.621L243.629 124H241.965L241.957 123.136C241.685 123.467 241.346 123.728 240.941 123.92C240.536 124.112 240.101 124.208 239.637 124.208C239.045 124.208 238.506 124.064 238.021 123.776C237.536 123.488 237.149 123.101 236.861 122.616C236.573 122.131 236.429 121.592 236.429 121ZM248.644 124.208C247.908 124.208 247.236 124.019 246.628 123.64C246.025 123.261 245.543 122.755 245.18 122.12C244.823 121.48 244.644 120.773 244.644 120C244.644 119.413 244.748 118.867 244.956 118.36C245.164 117.848 245.449 117.4 245.812 117.016C246.18 116.627 246.607 116.323 247.092 116.104C247.577 115.885 248.095 115.776 248.644 115.776C249.257 115.776 249.82 115.904 250.332 116.16C250.844 116.411 251.281 116.76 251.644 117.208C252.007 117.651 252.273 118.163 252.444 118.744C252.615 119.32 252.665 119.933 252.596 120.584H246.428C246.497 120.952 246.631 121.285 246.828 121.584C247.031 121.877 247.287 122.109 247.596 122.28C247.911 122.451 248.26 122.539 248.644 122.544C249.049 122.544 249.417 122.443 249.748 122.24C250.084 122.037 250.359 121.757 250.572 121.4L252.26 121.792C251.94 122.501 251.457 123.083 250.812 123.536C250.167 123.984 249.444 124.208 248.644 124.208ZM246.372 119.312H250.916C250.863 118.928 250.727 118.581 250.508 118.272C250.295 117.957 250.025 117.709 249.7 117.528C249.38 117.341 249.028 117.248 248.644 117.248C248.265 117.248 247.913 117.339 247.588 117.52C247.268 117.701 247.001 117.949 246.788 118.264C246.58 118.573 246.441 118.923 246.372 119.312Z" fill="white"/>
<path d="M307.875 41.125L324.125 24.875M324.125 24.875L311.937 24.875M324.125 24.875V37.0625" stroke="#4D4D4D" stroke-width="1.5" stroke-linecap="round" stroke-linejoin="round"/>
<defs>
<linearGradient id="paint0_linear_139_6457" x1="149.189" y1="93.2927" x2="206.994" y2="25.9756" gradientUnits="userSpaceOnUse">
<stop stop-color="#A685FA"/>
<stop offset="0.323723" stop-color="#A685FA" stop-opacity="0"/>
</linearGradient>
<linearGradient id="paint1_linear_139_6457" x1="204.067" y1="22.3171" x2="149.189" y2="90" gradientUnits="userSpaceOnUse">
<stop stop-color="#A685FA"/>
<stop offset="0.576615" stop-color="#A685FA" stop-opacity="0"/>
</linearGradient>
<linearGradient id="paint2_linear_139_6457" x1="147.46" y1="40.4839" x2="196.073" y2="82" gradientUnits="userSpaceOnUse">
<stop stop-color="#A685FA"/>
<stop offset="0.323723" stop-color="#A685FA" stop-opacity="0"/>
</linearGradient>
<linearGradient id="paint3_linear_139_6457" x1="204.944" y1="91.9355" x2="153.847" y2="55.7419" gradientUnits="userSpaceOnUse">
<stop stop-color="#A685FA"/>
<stop offset="0.576615" stop-color="#A685FA" stop-opacity="0"/>
</linearGradient>
</defs>
</svg>
